<svg id="Layer_1" height="512" viewBox="0 0 128 128" width="512" xmlns="http://www.w3.org/2000/svg" data-name="Layer 1"><path d="m100.75 71.108a15 15 0 0 0 -5.936-12 13.18 13.18 0 0 0 -9.009-18.187 11.805 11.805 0 0 0 -21.805-4.776 11.8 11.8 0 0 0 -21.793 4.77 13.18 13.18 0 0 0 -9.021 18.185 15.12 15.12 0 0 0 2.477 25.562 15.121 15.121 0 0 0 28.337 4.763 15.121 15.121 0 0 0 28.338-4.759 15.084 15.084 0 0 0 8.412-13.558zm-50.136 22.909a11.683 11.683 0 0 1 -11.55-10.4 1.739 1.739 0 0 0 .006-.278q-.037-.46-.036-.931a11.621 11.621 0 0 1 11.608-11.608 1.75 1.75 0 0 0 0-3.5 15.122 15.122 0 0 0 -14.989 13.3 11.618 11.618 0 0 1 -.506-18.583 12.3 12.3 0 0 0 21.134-8.584 1.75 1.75 0 0 0 -3.5 0 8.812 8.812 0 0 1 -15.833 5.332 9.682 9.682 0 0 1 7.13-14.632 1.839 1.839 0 0 0 1.535-1.833 8.318 8.318 0 0 1 16.637 0v40.081a11.649 11.649 0 0 1 -11.636 11.636zm26.771 0a11.649 11.649 0 0 1 -11.635-11.636v-40.081a8.32 8.32 0 0 1 16.64-.095c0 .047-.008.14-.008.187a1.75 1.75 0 0 0 1.54 1.737 9.682 9.682 0 0 1 7.13 14.632 8.812 8.812 0 0 1 -15.833-5.332 1.75 1.75 0 0 0 -3.5 0 12.3 12.3 0 0 0 21.134 8.584 11.618 11.618 0 0 1 -.506 18.587 15.122 15.122 0 0 0 -14.989-13.3 1.75 1.75 0 0 0 0 3.5 11.621 11.621 0 0 1 11.608 11.608q0 .47-.036.931a1.739 1.739 0 0 0 .006.278 11.683 11.683 0 0 1 -11.55 10.4z"/><path d="m64 23.25a1.75 1.75 0 0 0 1.75-1.75v-10.5a1.75 1.75 0 0 0 -3.5 0v10.5a1.75 1.75 0 0 0 1.75 1.75z"/><path d="m100.239 25.286-7.425 7.425a1.75 1.75 0 1 0 2.475 2.475l7.425-7.425a1.75 1.75 0 0 0 -2.475-2.475z"/><path d="m117 62.25h-10.5a1.75 1.75 0 0 0 0 3.5h10.5a1.75 1.75 0 0 0 0-3.5z"/><path d="m95.289 92.814a1.75 1.75 0 0 0 -2.475 2.475l7.425 7.425a1.75 1.75 0 0 0 2.475-2.475z"/><path d="m64 104.75a1.75 1.75 0 0 0 -1.75 1.75v10.5a1.75 1.75 0 0 0 3.5 0v-10.5a1.75 1.75 0 0 0 -1.75-1.75z"/><path d="m32.711 92.814-7.425 7.425a1.75 1.75 0 1 0 2.475 2.475l7.425-7.425a1.75 1.75 0 1 0 -2.475-2.475z"/><path d="m21.5 62.25h-10.5a1.75 1.75 0 0 0 0 3.5h10.5a1.75 1.75 0 0 0 0-3.5z"/><path d="m32.711 35.186a1.75 1.75 0 1 0 2.475-2.475l-7.425-7.425a1.75 1.75 0 0 0 -2.475 2.475z"/></svg>