<svg id="Layer_1" height="512" viewBox="0 0 128 128" width="512" xmlns="http://www.w3.org/2000/svg" data-name="Layer 1"><path d="m117 23.613h-13.75v-10.339a1.75 1.75 0 0 0 -1.75-1.75h-6.1c-2.224-.684-16.613-4.73-31.4-.081-14.786-4.648-29.173-.6-31.4.081h-6.1a1.75 1.75 0 0 0 -1.75 1.75v10.339h-13.75a1.75 1.75 0 0 0 -1.75 1.75v69.673a1.75 1.75 0 0 0 1.75 1.75h41.089l-3.119 12.4h-.278a7.825 7.825 0 0 0 -7.817 7.814 1.75 1.75 0 0 0 1.75 1.75h42.75a1.75 1.75 0 0 0 1.75-1.75 7.826 7.826 0 0 0 -7.816-7.816h-.277l-3.119-12.4h41.087a1.75 1.75 0 0 0 1.75-1.75v-69.671a1.75 1.75 0 0 0 -1.75-1.75zm-90.5 45.987h75a1.75 1.75 0 0 0 1.75-1.75v-34.972h5.812v48.8h-90.124v-48.8h5.812v34.971a1.75 1.75 0 0 0 1.75 1.751zm73.25-3.5h-34v-1.118a66.848 66.848 0 0 1 28.968.324 1.75 1.75 0 0 0 2.164-1.7v-48.582h2.868zm-6.368-51.5v46.819a70.168 70.168 0 0 0 -27.632-.019v-46.819c11.991-3.524 23.887-.981 27.632.013zm-31.132-.037v46.837a70.131 70.131 0 0 0 -27.632.023v-46.829c3.745-.994 15.645-3.556 27.632-.031zm-34 .462h2.868v48.581a1.75 1.75 0 0 0 2.164 1.7 67.069 67.069 0 0 1 28.968-.322v1.116h-34zm55 100.226h-38.504a4.323 4.323 0 0 1 3.946-2.566h30.617a4.321 4.321 0 0 1 3.945 2.565zm-7.832-6.066h-22.84l3.119-12.4h16.603zm39.828-15.9h-102.496v-66.172h12v2.265h-7.562a1.75 1.75 0 0 0 -1.75 1.75v52.3a1.75 1.75 0 0 0 1.75 1.75h93.623a1.75 1.75 0 0 0 1.75-1.75v-52.3a1.75 1.75 0 0 0 -1.75-1.75h-7.561v-2.265h12z"/><path d="m39.073 25.8c.094-.031 9.509-3.03 18.721 0a1.75 1.75 0 1 0 1.093-3.324c-10.333-3.4-20.478-.141-20.9 0a1.75 1.75 0 0 0 1.086 3.324z"/><path d="m39.073 34.813c.094-.03 9.509-3.029 18.721 0a1.75 1.75 0 1 0 1.093-3.324c-10.333-3.4-20.478-.141-20.9 0a1.75 1.75 0 0 0 1.091 3.325z"/><path d="m39.073 43.827c.094-.031 9.509-3.03 18.721 0a1.75 1.75 0 1 0 1.092-3.327c-10.333-3.4-20.478-.141-20.9 0a1.75 1.75 0 0 0 1.091 3.325z"/><path d="m39.075 52.841c.094-.03 9.466-3.041 18.719 0a1.75 1.75 0 1 0 1.093-3.324c-10.333-3.4-20.478-.141-20.9 0a1.75 1.75 0 1 0 1.093 3.324z"/><path d="m69.66 25.885a1.754 1.754 0 0 0 .547-.088c9.193-3.021 18.587-.041 18.72 0a1.75 1.75 0 0 0 1.092-3.325c-.428-.141-10.569-3.4-20.905 0a1.75 1.75 0 0 0 .547 3.412z"/><path d="m69.66 34.9a1.754 1.754 0 0 0 .547-.088c9.193-3.021 18.587-.041 18.72 0a1.75 1.75 0 0 0 1.092-3.325c-.428-.141-10.569-3.4-20.905 0a1.75 1.75 0 0 0 .546 3.413z"/><path d="m69.66 43.914a1.754 1.754 0 0 0 .547-.088c9.193-3.022 18.587-.042 18.72 0a1.75 1.75 0 0 0 1.092-3.326c-.428-.141-10.569-3.4-20.905 0a1.75 1.75 0 0 0 .547 3.412z"/><path d="m90.019 49.517c-.428-.141-10.569-3.4-20.905 0a1.75 1.75 0 1 0 1.094 3.324c9.192-3.021 18.589-.042 18.72 0a1.75 1.75 0 0 0 1.092-3.325z"/></svg>