<svg id="Layer_1" height="512" viewBox="0 0 128 128" width="512" xmlns="http://www.w3.org/2000/svg" data-name="Layer 1"><path d="m47.424 44h13.743a1.75 1.75 0 0 0 0-3.5h-13.743a1.75 1.75 0 0 0 0 3.5z"/><path d="m36.924 55h-8.5a1.75 1.75 0 0 0 -1.75 1.75v8.5a1.75 1.75 0 0 0 1.75 1.75h8.5a1.75 1.75 0 0 0 1.75-1.75v-8.5a1.75 1.75 0 0 0 -1.75-1.75zm-1.75 8.5h-5v-5h5z"/><path d="m47.424 62.752h26a1.75 1.75 0 0 0 0-3.5h-26a1.75 1.75 0 0 0 0 3.5z"/><path d="m36.924 73.754h-8.5a1.75 1.75 0 0 0 -1.75 1.75v8.496a1.75 1.75 0 0 0 1.75 1.75h8.5a1.75 1.75 0 0 0 1.75-1.75v-8.5a1.75 1.75 0 0 0 -1.75-1.746zm-1.75 8.5h-5v-5h5z"/><path d="m47.424 81.5h13.743a1.75 1.75 0 0 0 0-3.5h-13.743a1.75 1.75 0 0 0 0 3.5z"/><path d="m36.924 92.506h-8.5a1.75 1.75 0 0 0 -1.75 1.75v8.5a1.75 1.75 0 0 0 1.75 1.75h8.5a1.75 1.75 0 0 0 1.75-1.75v-8.5a1.75 1.75 0 0 0 -1.75-1.75zm-1.75 8.5h-5v-5h5z"/><path d="m111.68 34.643a8.719 8.719 0 0 0 -16.08-.968l-3.77 7.749-4.154 8.539v-24.213a1.75 1.75 0 0 0 -.513-1.237l-14.752-14.75a1.75 1.75 0 0 0 -1.237-.513h-53.583a1.75 1.75 0 0 0 -1.75 1.75v106a1.75 1.75 0 0 0 1.75 1.75h68.333a1.75 1.75 0 0 0 1.75-1.75v-27.179l23.6-48.517a8.657 8.657 0 0 0 .406-6.661zm-27.112 53.562-9.138 6.856-.247-11.422 19.026-39.11 9.391 4.571zm-11.644-72.98 8.776 8.775h-8.776zm-53.583 100.025v-102.5h50.083v13a1.75 1.75 0 0 0 1.75 1.75h13v29.658l-12.323 25.33a1.747 1.747 0 0 0 -.177.8l.291 13.464h-24.541a1.75 1.75 0 0 0 0 3.5h26a1.718 1.718 0 0 0 .175-.018c.052 0 .1.018.155.018a1.742 1.742 0 0 0 1.05-.351l9.37-7.03v22.379zm88.791-75.478-3.005 6.177-9.387-4.566 3-6.177a5.219 5.219 0 1 1 9.387 4.566z"/><path d="m38.354 39.042a1.751 1.751 0 0 0 -2.453.332l-3.401 4.472-1.616-1.616a1.75 1.75 0 0 0 -2.484 2.47l3.032 3.033a1.75 1.75 0 0 0 1.237.513h.117a1.755 1.755 0 0 0 1.275-.686l4.625-6.06a1.752 1.752 0 0 0 -.332-2.458z"/></svg>