<svg id="Layer_1" height="512" viewBox="0 0 128 128" width="512" xmlns="http://www.w3.org/2000/svg" data-name="Layer 1"><path d="m90.922 76.794a46.9 46.9 0 0 0 0-66.254 1.749 1.749 0 0 0 -2.475 0l-4.247 4.242-3.355 3.355a34.362 34.362 0 0 0 -15.2-7.972c-.027-.007-.054-.014-.082-.019a34.362 34.362 0 0 0 -39.199 19.526 1.738 1.738 0 0 0 -.081.18 34.334 34.334 0 0 0 5.983 36.87l-3.356 3.354-4.243 4.243a1.749 1.749 0 0 0 0 2.475 46.767 46.767 0 0 0 28.38 13.448v16.508h-11.576a10.261 10.261 0 0 0 -10.25 10.25 1.75 1.75 0 0 0 1.75 1.75h49.647a1.75 1.75 0 0 0 1.75-1.75 10.261 10.261 0 0 0 -10.25-10.25h-11.577v-16.507a46.762 46.762 0 0 0 28.381-13.449zm-33.128 1.289a34.285 34.285 0 0 0 23.589-9.39 1.751 1.751 0 0 0 .305-.291 34.34 34.34 0 0 0 1.635-47.79l2.087-2.087a37.348 37.348 0 0 1 -52.758 52.758l2.088-2.083a34.28 34.28 0 0 0 23.054 8.883zm14.931-16.878c-1.418-2.836-.855-6.01 1.544-8.709 6.918-7.784 5.154-19.278-4.292-27.952-5.129-4.71-4.518-8.789-3.823-10.636a30.892 30.892 0 0 1 13.453 51.646 7.909 7.909 0 0 1 -6.882-4.349zm-14.931-48.455a31 31 0 0 1 4.925.4c-.956 2.911-1.355 8.239 4.891 13.975 9.33 8.567 8.753 17.749 4.042 23.048-3.35 3.77-4.12 8.479-2.059 12.6a11.491 11.491 0 0 0 6.588 5.727 30.713 30.713 0 0 1 -22.059 5.853c-5.571-1.526-9.176-4.583-10.153-8.62a9.737 9.737 0 0 1 2.754-9.275 12.32 12.32 0 0 0 3.526-12.654c-.865-2.557-3.516-6.946-11.554-7.634-6.779-.58-8.534-4.231-8.943-5.5a30.952 30.952 0 0 1 28.042-17.92zm-29.643 22.15c1.672 2.093 4.718 4.286 10.244 4.759 4.486.384 7.518 2.255 8.537 5.269a8.732 8.732 0 0 1 -2.565 8.943 13.154 13.154 0 0 0 -3.8 12.688 12.985 12.985 0 0 0 1.594 3.762 30.872 30.872 0 0 1 -14.01-35.421zm52.487 80.35h-45.687a6.763 6.763 0 0 1 6.52-5h32.647a6.763 6.763 0 0 1 6.52 5zm-24.09-8.5v-18.117a1.75 1.75 0 0 0 -1.635-1.746 43.294 43.294 0 0 1 -26.513-11.356l1.769-1.769a40.849 40.849 0 0 0 57.721-57.716l1.769-1.77a43.312 43.312 0 0 1 -28.983 72.612 1.75 1.75 0 0 0 -1.635 1.746v18.116z"/></svg>