<svg id="Layer_1" height="512" viewBox="0 0 128 128" width="512" xmlns="http://www.w3.org/2000/svg" data-name="Layer 1"><path d="m117 16.432h-106a1.75 1.75 0 0 0 -1.75 1.75v69.672a1.75 1.75 0 0 0 1.75 1.746h41.089l-3.12 12.4h-.278a7.825 7.825 0 0 0 -7.816 7.816 1.75 1.75 0 0 0 1.75 1.75h42.75a1.75 1.75 0 0 0 1.75-1.75 7.825 7.825 0 0 0 -7.816-7.816h-.278l-3.12-12.4h41.089a1.75 1.75 0 0 0 1.75-1.75v-69.668a1.75 1.75 0 0 0 -1.75-1.75zm-33.746 91.636h-38.508a4.323 4.323 0 0 1 3.946-2.566h30.617a4.323 4.323 0 0 1 3.945 2.566zm-7.832-6.068h-22.844l3.122-12.4h16.6zm39.828-15.9h-102.5v-66.168h102.5z"/><path d="m17.188 78h93.623a1.75 1.75 0 0 0 1.75-1.75v-52.3a1.75 1.75 0 0 0 -1.75-1.75h-93.623a1.75 1.75 0 0 0 -1.75 1.75v52.3a1.75 1.75 0 0 0 1.75 1.75zm1.75-52.3h90.123v48.8h-90.123z"/><path d="m25.809 58.156h23.132a1.75 1.75 0 0 0 1.75-1.75 13.414 13.414 0 0 0 -6.412-11.376 8.084 8.084 0 1 0 -13.807 0 13.415 13.415 0 0 0 -6.412 11.376 1.75 1.75 0 0 0 1.749 1.75zm11.566-21.892a4.583 4.583 0 1 1 -4.583 4.584 4.589 4.589 0 0 1 4.583-4.584zm-4.375 11.371a8.03 8.03 0 0 0 8.747 0 9.9 9.9 0 0 1 5.282 7.021h-19.31a9.9 9.9 0 0 1 5.281-7.021z"/><path d="m102.191 35.742h-41.75a1.75 1.75 0 0 0 0 3.5h41.75a1.75 1.75 0 1 0 0-3.5z"/><path d="m102.191 44.794h-41.75a1.75 1.75 0 0 0 0 3.5h41.75a1.75 1.75 0 0 0 0-3.5z"/><path d="m102.191 53.845h-41.75a1.75 1.75 0 0 0 0 3.5h41.75a1.75 1.75 0 0 0 0-3.5z"/><path d="m102.191 62.9h-76.382a1.75 1.75 0 0 0 0 3.5h76.382a1.75 1.75 0 0 0 0-3.5z"/></svg>